<svg width="32" height="32" viewBox="0 0 32 32" fill="none" xmlns="http://www.w3.org/2000/svg">
<path d="M16 28.6585C15.5 28.3585 2 20.4585 2 11.4585C2 6.95854 5.58 3.45854 10.08 3.45854C12.84 3.45854 15.28 4.81854 16 6.99854C16.72 4.81854 19.16 3.45854 21.92 3.45854C26.42 3.45854 30 6.95854 30 11.4585C30 20.4585 16.5 28.3585 16 28.6585Z" fill="#D83B01"/>
<path d="M16 28.6585C15.5 28.3585 2 20.4585 2 11.4585C2 6.95854 5.58 3.45854 10.08 3.45854C12.84 3.45854 15.28 4.81854 16 6.99854C16.72 4.81854 19.16 3.45854 21.92 3.45854C26.42 3.45854 30 6.95854 30 11.4585C30 20.4585 16.5 28.3585 16 28.6585Z" fill="#F8312F"/>
</svg>
